<svg id="visual" viewBox="0 0 900 600" width="900" height="600" xmlns="http://www.w3.org/2000/svg" xmlns:xlink="http://www.w3.org/1999/xlink" version="1.1"><rect x="0" y="0" width="900" height="600" fill="#F3F4F6"></rect><defs><linearGradient id="grad1_0" x1="33.3%" y1="0%" x2="100%" y2="100%"><stop offset="20%" stop-color="#7c3aed" stop-opacity="1"></stop><stop offset="80%" stop-color="#7c3aed" stop-opacity="1"></stop></linearGradient></defs><defs><linearGradient id="grad1_1" x1="33.3%" y1="0%" x2="100%" y2="100%"><stop offset="20%" stop-color="#7c3aed" stop-opacity="1"></stop><stop offset="80%" stop-color="#f3f4f6" stop-opacity="1"></stop></linearGradient></defs><defs><linearGradient id="grad2_0" x1="0%" y1="0%" x2="66.7%" y2="100%"><stop offset="20%" stop-color="#7c3aed" stop-opacity="1"></stop><stop offset="80%" stop-color="#7c3aed" stop-opacity="1"></stop></linearGradient></defs><defs><linearGradient id="grad2_1" x1="0%" y1="0%" x2="66.7%" y2="100%"><stop offset="20%" stop-color="#f3f4f6" stop-opacity="1"></stop><stop offset="80%" stop-color="#7c3aed" stop-opacity="1"></stop></linearGradient></defs><g transform="translate(900, 0)"><path d="M0 486.7C-66.2 482.8 -132.3 478.9 -186.3 449.7C-240.2 420.5 -282 366 -315.4 315.4C-348.8 264.7 -373.8 218 -401 166.1C-428.1 114.2 -457.4 57.1 -486.7 0L0 0Z" fill="#95a4ff"></path><path d="M0 243.4C-33.1 241.4 -66.2 239.5 -93.1 224.8C-120.1 210.2 -141 183 -157.7 157.7C-174.4 132.4 -186.9 109 -200.5 83C-214.1 57.1 -228.7 28.5 -243.4 0L0 0Z" fill="#7c3aed"></path></g><g transform="translate(0, 600)"><path d="M0 -486.7C49.3 -445.7 98.6 -404.6 160.3 -387.1C222.1 -369.6 296.2 -375.8 344.2 -344.2C392.1 -312.6 413.9 -243.1 433.3 -179.5C452.7 -115.8 469.7 -57.9 486.7 0L0 0Z" fill="#95a4ff"></path><path d="M0 -243.4C24.7 -222.8 49.3 -202.3 80.2 -193.6C111 -184.8 148.1 -187.9 172.1 -172.1C196.1 -156.3 207 -121.6 216.6 -89.7C226.3 -57.9 234.9 -29 243.4 0L0 0Z" fill="#7c3aed"></path></g></svg>